<?xml version="1.0" encoding="UTF-8"?>
<svg xmlns="http://www.w3.org/2000/svg" xmlns:xlink="http://www.w3.org/1999/xlink" id="a" width="865.76" height="682.89" viewBox="0 0 865.76 682.89">
  <defs>
    <mask id="b" x="455.09" y="130.26" width="198.84" height="174.54" maskUnits="userSpaceOnUse"></mask>
  </defs>
  <g>
    <path d="M290.68,592.35s3.74,4.19,3.69,5.74c-5.19,1.18-10.46,1.95-15.77,2.31-7.06,.29-17.72-2.36-19.59-3.22s-1.33-3.23-1.33-3.23c0,0,5.79-2.62,10-2.6s15.92,.81,23,1Z" fill="#fff"></path>
    <path d="M277.53,600.92c-6.96,0-16.8-2.4-18.73-3.29-1.77-.81-1.83-2.84-1.61-3.8l.06-.24,.23-.1c.24-.11,5.91-2.63,10.21-2.64,2.18,0,6.39,.23,10.85,.46,4.3,.22,8.74,.45,12.16,.54h.22s.14,.17,.14,.17c.65,.72,3.87,4.42,3.82,6.09v.38s-.39,.09-.39,.09c-5.2,1.18-10.53,1.97-15.85,2.32-.36,.01-.73,.02-1.1,.02Zm-19.4-6.62c-.07,.55-.09,1.88,1.09,2.43,1.64,.75,12.22,3.47,19.36,3.17,5.1-.34,10.22-1.08,15.23-2.2-.35-1.12-2.04-3.36-3.36-4.86-3.41-.1-7.76-.32-11.97-.54-4.44-.23-8.64-.45-10.8-.46-3.59-.06-8.42,1.96-9.55,2.45Z" fill="#002346"></path>
  </g>
  <g>
    <path d="M297.86,597.77s-1.29-3.78-3.81-5.54c0,0,8.68-1.47,12.61,1.41s-5.31,3.81-8.8,4.13Z" fill="#fff"></path>
    <path d="M297.51,598.31l-.13-.37s-1.27-3.65-3.62-5.29l-1-.7,1.2-.2c.36-.06,8.94-1.47,12.99,1.5,.93,.68,1.3,1.37,1.11,2.05-.41,1.48-3.45,2.37-10.16,2.98l-.39,.04Zm-2.27-5.73c1.63,1.58,2.61,3.79,2.95,4.66,7.68-.74,8.79-1.79,8.91-2.22,.06-.23-.21-.58-.74-.97-2.9-2.13-8.69-1.75-11.12-1.47Z" fill="#002346"></path>
  </g>
  <g>
    <path d="M346.87,582.54s3.39-4,3.2-5.58c-5.3-1.33-10.69-2.27-16.13-2.8-7.16-.53-17.68,1.74-19.49,2.54-1.81,.8-1,3.17-1,3.17,0,0,6.08,2.8,10.3,2.92,4.22,.12,15.98-.33,23.12-.25Z" fill="#fff"></path>
    <path d="M325.55,583.31c-.7,0-1.31,0-1.81-.02-4.27-.12-10.24-2.85-10.5-2.97l-.19-.09-.07-.2c-.33-.97-.49-3.01,1.27-3.79,1.95-.86,12.64-3.11,19.73-2.58,5.45,.54,10.9,1.48,16.21,2.81l.33,.08,.04,.34c.21,1.71-2.73,5.27-3.32,5.96l-.15,.18h-.24c-3.64-.05-8.57,.05-12.92,.14-3.17,.06-6.21,.12-8.39,.12Zm-11.68-3.8c1.09,.48,6.26,2.68,9.9,2.78,2.05,.06,5.99-.02,10.16-.1,4.27-.08,9.09-.18,12.72-.15,1.2-1.44,2.7-3.61,2.91-4.69-5.14-1.27-10.4-2.17-15.66-2.69-7.26-.54-17.66,1.8-19.24,2.5-1.12,.49-.91,1.84-.79,2.35Z" fill="#002346"></path>
  </g>
  <g>
    <path d="M353.6,577.39s-1,3.72-3.34,5.38c0,0,8.89,1.76,12.6-1,3.71-2.76-5.69-3.94-9.26-4.38Z" fill="#fff"></path>
    <path d="M356.14,583.83c-3.05,0-5.77-.53-5.97-.57l-1.14-.23,.95-.67c2.16-1.53,3.14-5.07,3.15-5.1l.11-.42,.43,.05c5.17,.64,10.02,1.48,10.51,3.34,.17,.66-.17,1.31-1.01,1.93-1.74,1.29-4.49,1.66-7.02,1.66Zm-4.74-1.38c2.41,.36,8.4,.98,11.17-1.08,.46-.34,.7-.66,.64-.88-.17-.66-1.93-1.63-9.25-2.55-.29,.89-1.1,3.02-2.56,4.51Z" fill="#002346"></path>
  </g>
  <path d="M182.86,589.81v-5c1.39,.19,2.72,.7,3.89,1.48,2.57,1.87-.48,2.93-3.89,3.52Z" fill="#f1f1f1"></path>
  <g>
    <path d="M223.82,581.84s3.06-4.29,2.74-5.82c-5.39-.9-10.84-1.41-16.31-1.52-7.17,0-17.48,3.17-19.21,4.11-1.73,.94-.79,3.24-.79,3.24,0,0,6.29,2.3,10.5,2.08,4.21-.22,15.95-1.59,23.07-2.09Z" fill="#fff"></path>
    <path d="M200.16,584.45c-4.22,0-9.83-2.03-10.08-2.12l-.21-.08-.08-.2c-.38-.94-.67-2.96,1.01-3.87,1.64-.89,11.96-4.17,19.45-4.17,5.48,.11,10.99,.62,16.39,1.53l.34,.06,.07,.33c.35,1.66-2.29,5.47-2.82,6.21l-.14,.19-.24,.02c-3.6,.25-8.47,.74-12.77,1.17-4.22,.42-8.22,.82-10.31,.93-.2,.01-.41,.02-.62,.02Zm-9.52-2.99c1.14,.4,6.46,2.14,10.08,1.97,2.07-.11,6.05-.5,10.26-.92,4.21-.42,8.98-.89,12.57-1.15,1.08-1.54,2.4-3.83,2.53-4.91-5.23-.86-10.55-1.34-15.84-1.45-7.18,0-17.42,3.21-18.96,4.05-1.07,.58-.79,1.9-.64,2.41Z" fill="#002346"></path>
  </g>
  <g>
    <path d="M230.13,576.16s-.65,3.78-2.9,5.63c0,0,9,1,12.49-2,3.49-3-6.01-3.47-9.59-3.63Z" fill="#fff"></path>
    <path d="M230.63,582.46c-1.89,0-3.31-.15-3.46-.17l-1.18-.13,.92-.75c2.08-1.71,2.72-5.29,2.72-5.33l.07-.43,.44,.02c7.13,.32,10.25,1.05,10.76,2.52,.22,.64-.07,1.3-.86,1.98-2.22,1.91-6.41,2.29-9.41,2.29Zm-2.28-1.08c2.45,.15,8.45,.26,11.04-1.97,.43-.37,.64-.7,.57-.9-.18-.53-1.66-1.45-9.43-1.83-.21,.92-.83,3.09-2.18,4.7Z" fill="#002346"></path>
  </g>
  <g>
    <path d="M406.43,595.58s4,3.9,4.11,5.45c-5.09,1.56-10.29,2.73-15.56,3.49-7,.81-17.86-1-19.78-1.76-1.92-.76-1.57-3.12-1.57-3.12,0,0,5.58-3,9.75-3.34s15.97-.35,23.05-.72Z" fill="#fff"></path>
    <path d="M390.94,605.23c-6.64,0-14.28-1.35-15.93-2-1.81-.72-2.02-2.71-1.88-3.66l.04-.25,.22-.12c.23-.12,5.72-3.05,9.95-3.4,2.17-.18,6.4-.27,10.89-.36,4.31-.09,8.76-.18,12.18-.36h.22s.16,.14,.16,.14c.69,.67,4.14,4.12,4.26,5.77l.03,.4-.38,.12c-5.1,1.57-10.36,2.75-15.64,3.51-1.28,.15-2.67,.21-4.11,.21Zm-16.84-5.27c-.02,.55,.06,1.86,1.28,2.34,1.88,.75,12.67,2.53,19.54,1.73,5.06-.73,10.11-1.85,15.02-3.33-.46-1.13-2.37-3.28-3.71-4.6-3.4,.17-7.77,.26-11.99,.35-4.47,.09-8.69,.18-10.83,.36-3.54,.29-8.22,2.59-9.32,3.16Z" fill="#002346"></path>
  </g>
  <g>
    <path d="M413.99,600.46s-1.57-3.68-4.21-5.24c0,0,8.54-2.12,12.68,.46s-5.01,4.2-8.47,4.78Z" fill="#fff"></path>
    <path d="M413.69,601.02l-.15-.36s-1.54-3.55-4-5l-1.05-.62,1.19-.29c.36-.09,8.79-2.14,13.06,.52,.98,.61,1.4,1.27,1.27,1.96-.3,1.5-3.26,2.62-9.92,3.74l-.39,.07Zm-2.69-5.54c1.74,1.45,2.88,3.58,3.29,4.43,7.61-1.31,8.64-2.45,8.73-2.88,.05-.23-.25-.57-.81-.92-3.06-1.91-8.8-1.09-11.2-.63Z" fill="#002346"></path>
  </g>
  <g>
    <path d="M459.01,584.78s3.63-3.83,3.53-5.38c-5.21-1.65-10.54-2.92-15.94-3.78-7.11-1-17.75,.7-19.6,1.38-1.85,.68-1.23,3.1-1.23,3.1,0,0,5.9,3.16,10.11,3.53,4.21,.37,16.01,.65,23.13,1.15Z" fill="#fff"></path>
    <path d="M459.21,585.3l-.24-.02c-3.6-.25-8.5-.45-12.81-.63-4.24-.17-8.24-.34-10.32-.52-4.26-.37-10.06-3.46-10.3-3.59l-.19-.1-.05-.21c-.25-.99-.26-3.03,1.54-3.69,1.77-.65,12.48-2.44,19.84-1.41,5.41,.87,10.8,2.14,16.02,3.8l.33,.1,.02,.34c.11,1.68-3.03,5.09-3.67,5.76l-.16,.17Zm-33-5.53c1.07,.55,6.09,3.05,9.71,3.36,2.07,.18,6.05,.34,10.28,.52,4.23,.17,9.02,.37,12.61,.62,1.28-1.38,2.91-3.46,3.19-4.51-5.05-1.58-10.26-2.8-15.48-3.64-7.07-.99-17.69,.75-19.35,1.36-1.14,.42-1.04,1.77-.96,2.3Z" fill="#002346"></path>
  </g>
  <g>
    <path d="M466.06,580.04s-1.18,3.66-3.66,5.17c0,0,8.78,2.28,12.64-.22s-5.44-4.3-8.98-4.95Z" fill="#fff"></path>
    <path d="M469.67,586.67c-3.6,0-7.16-.91-7.4-.97l-1.14-.3,1.01-.61c2.29-1.39,3.43-4.86,3.44-4.9l.14-.42,.43,.08c6.9,1.27,9.98,2.47,10.29,4,.13,.66-.25,1.29-1.12,1.86-1.47,.95-3.56,1.25-5.64,1.25Zm-6.11-1.7c2.4,.5,8.33,1.47,11.2-.39,.48-.31,.73-.61,.69-.82-.09-.45-1.16-1.65-9.07-3.14-.34,.88-1.25,2.95-2.82,4.35Z" fill="#002346"></path>
  </g>
  <g>
    <path d="M519.51,592.35s3.73,4.19,3.69,5.74c-5.19,1.18-10.47,1.96-15.78,2.31-7.06,.29-17.73-2.36-19.6-3.22s-1.32-3.23-1.32-3.23c0,0,5.78-2.62,10-2.6s15.92,.81,23.01,1Z" fill="#fff"></path>
    <path d="M506.35,600.92c-6.96,0-16.81-2.4-18.74-3.29-1.77-.82-1.82-2.84-1.6-3.8l.06-.24,.22-.1c.24-.11,5.88-2.64,10.16-2.64h.05c2.19,0,6.4,.23,10.85,.46,4.3,.22,8.74,.45,12.17,.54h.22s.14,.17,.14,.17c.64,.72,3.86,4.42,3.82,6.08v.39s-.39,.09-.39,.09c-5.2,1.19-10.54,1.97-15.86,2.32-.36,.01-.73,.02-1.11,.02Zm-19.4-6.62c-.07,.55-.1,1.88,1.08,2.43,1.64,.75,12.23,3.48,19.37,3.17,5.1-.34,10.23-1.08,15.24-2.2-.35-1.12-2.04-3.36-3.36-4.86-3.41-.1-7.76-.32-11.98-.54-4.44-.23-8.64-.45-10.8-.46-3.58-.07-8.42,1.96-9.55,2.45Z" fill="#002346"></path>
  </g>
  <g>
    <path d="M526.68,597.77s-1.29-3.78-3.81-5.54c0,0,8.68-1.47,12.62,1.41,3.94,2.88-5.32,3.81-8.81,4.13Z" fill="#fff"></path>
    <path d="M526.33,598.31l-.13-.37s-1.27-3.65-3.62-5.29l-1-.7,1.2-.2c.36-.06,8.93-1.47,13,1.5,.93,.68,1.3,1.37,1.12,2.05-.41,1.48-3.45,2.37-10.18,2.99l-.39,.04Zm-2.27-5.73c1.63,1.58,2.61,3.79,2.95,4.66,7.69-.74,8.81-1.79,8.92-2.22,.06-.22-.22-.59-.74-.97-2.91-2.13-8.7-1.75-11.13-1.47Z" fill="#002346"></path>
  </g>
  <g>
    <path d="M572.6,589.16s3.06-4.3,2.75-5.83c-5.4-.9-10.85-1.41-16.32-1.52-7.17,.06-17.47,3.17-19.21,4.11s-.78,3.24-.78,3.24c0,0,6.28,2.3,10.49,2.08,4.21-.22,15.9-1.55,23.07-2.08Z" fill="#fff"></path>
    <path d="M548.94,591.76c-4.22,0-9.82-2.03-10.07-2.12l-.21-.08-.08-.2c-.39-.94-.69-2.96,1-3.87,1.88-1.02,12.35-4.11,19.44-4.17,5.48,.11,11,.62,16.41,1.53l.34,.06,.07,.34c.34,1.66-2.3,5.47-2.83,6.22l-.14,.19-.23,.02c-3.48,.26-7.95,.7-12.27,1.12-4.44,.44-8.63,.85-10.81,.96-.2,.01-.41,.02-.62,.02Zm-9.51-2.99c1.14,.4,6.45,2.15,10.07,1.97,2.15-.11,6.33-.52,10.76-.96,4.23-.42,8.61-.84,12.06-1.11,1.08-1.54,2.4-3.83,2.54-4.92-5.23-.86-10.56-1.34-15.84-1.45-7.26,.06-17.45,3.23-18.96,4.05-1.07,.58-.78,1.9-.63,2.41Z" fill="#002346"></path>
  </g>
  <g>
    <path d="M578.87,583.52s-.66,3.78-2.9,5.63c0,0,9,1,12.48-2s-6.01-3.48-9.58-3.63Z" fill="#fff"></path>
    <path d="M579.37,589.82c-1.89,0-3.31-.15-3.46-.17l-1.17-.13,.91-.75c2.07-1.71,2.72-5.29,2.73-5.33l.08-.43,.44,.02c7.02,.29,10.23,1.05,10.74,2.52,.22,.64-.07,1.3-.86,1.99-2.21,1.91-6.4,2.29-9.41,2.29Zm-2.28-1.08c2.44,.15,8.45,.26,11.04-1.97,.43-.37,.64-.7,.57-.9-.15-.43-1.37-1.46-9.42-1.83-.21,.92-.83,3.09-2.18,4.7Z" fill="#002346"></path>
  </g>
  <g>
    <path d="M632.24,596.03s3.74,4.18,3.69,5.74c-5.19,1.18-10.47,1.95-15.78,2.31-7.06,.29-17.73-2.36-19.59-3.23-1.86-.87-1.33-3.23-1.33-3.23,0,0,5.79-2.62,10-2.6s15.92,.84,23.01,1.01Z" fill="#fff"></path>
    <path d="M619.06,604.6c-7.01,0-16.81-2.41-18.72-3.3-1.76-.82-1.82-2.84-1.61-3.79l.05-.24,.23-.1c.24-.11,5.89-2.64,10.16-2.64h.05c2.11,0,6.15,.22,10.43,.45,4.24,.22,9.05,.48,12.59,.56h.22s.14,.17,.14,.17c.65,.72,3.87,4.41,3.82,6.09v.39s-.39,.08-.39,.08c-5.2,1.18-10.54,1.96-15.86,2.32-.36,.01-.74,.02-1.12,.02Zm-19.38-6.63c-.06,.55-.08,1.88,1.09,2.43,1.62,.76,12.15,3.49,19.36,3.18,5.1-.35,10.23-1.08,15.24-2.2-.35-1.12-2.04-3.36-3.36-4.86-3.54-.09-8.24-.34-12.4-.56-4.26-.22-8.29-.44-10.38-.45h-.05c-3.57,0-8.37,1.96-9.5,2.45Z" fill="#002346"></path>
  </g>
  <g>
    <path d="M639.42,601.45s-1.29-3.79-3.82-5.54c0,0,8.68-1.47,12.62,1.41s-5.32,3.84-8.8,4.13Z" fill="#fff"></path>
    <path d="M639.07,601.98l-.13-.37s-1.27-3.66-3.63-5.29l-1.01-.7,1.21-.21c.36-.06,8.93-1.47,13,1.5,.93,.68,1.31,1.37,1.12,2.05-.26,.94-1.6,2.26-10.17,2.98l-.39,.03Zm-2.27-5.73c1.63,1.57,2.61,3.79,2.96,4.67,8.08-.71,8.84-1.97,8.91-2.22,.06-.23-.21-.58-.74-.98-2.91-2.12-8.69-1.74-11.12-1.47Z" fill="#002346"></path>
  </g>
  <g>
    <path d="M682.9,586.31v6.75c-7.12,.58-16.91,1.71-20.68,1.89-4.22,.22-10.5-2.07-10.5-2.07,0,0-1-2.3,.79-3.24,1.79-.94,12-4.06,19.21-4.11,3.74,.03,7.47,.29,11.18,.78Z" fill="#fff"></path>
    <path d="M661.62,595.47c-4.22,0-9.83-2.02-10.07-2.12l-.2-.07-.09-.2c-.41-.94-.73-2.97,1.02-3.88,2-1.05,12.36-4.12,19.44-4.17,3.76,.03,7.54,.29,11.25,.78l.43,.06v7.65l-.46,.04c-3.18,.26-6.83,.62-10.36,.97-4.24,.42-8.24,.82-10.34,.92-.2,.01-.41,.02-.62,.02Zm-9.52-2.98c1.13,.39,6.46,2.17,10.09,1.96,2.07-.1,6.06-.5,10.29-.92,3.37-.33,6.84-.68,9.92-.94v-5.85c-3.53-.45-7.12-.69-10.68-.72-7.25,.05-17.35,3.2-18.97,4.05-1.11,.58-.8,1.9-.64,2.4Z" fill="#002346"></path>
  </g>
  <g>
    <path d="M641.22,576.94c.09-4.21-.59-8.4-2-12.36-.7-2-24.15,6.88-26.44,7.63-7.74,2.56-13.45,7.05-20.12,11.83-3.16,2.27-6.37,4.57-10,5.87s-8,1.57-11.8,2.89c-3.8,1.32-7.59,4.23-8,8.27,8.08,2.58,16.8,4.54,25,2.31,7.92-2.15,14.28-7.91,21.54-11.73,5.05-2.57,10.43-4.41,16-5.46,0,1.57,.08,3.15,.13,4.72,4.12,0,8.22-.59,12.18-1.75,.52-.12,1.02-.35,1.44-.68,.39-.41,.68-.91,.84-1.46,1.16-3.23,1.58-6.67,1.23-10.08Z" fill="#000000"></path>
    <path d="M580.2,604.86c-6.08,0-12.11-1.59-17.49-3.31l-.39-.12,.04-.4c.45-4.43,4.6-7.39,8.33-8.69,1.92-.67,3.99-1.07,6-1.46,2.06-.4,4.01-.78,5.8-1.42,3.58-1.28,6.78-3.58,9.88-5.81,.71-.51,1.41-1.01,2.1-1.51,5.74-4.15,11.16-8.07,18.15-10.38,.36-.12,1.22-.43,2.43-.87,15.65-5.65,22.66-7.66,24.19-6.93,.28,.13,.4,.33,.45,.47,1.43,4.02,2.12,8.23,2.03,12.51,.35,3.45-.09,7-1.26,10.27-.17,.59-.5,1.17-.95,1.64-.53,.42-1.1,.69-1.69,.82-3.97,1.16-8.12,1.76-12.29,1.76h-.48s-.06-1.76-.06-1.76c-.04-.95-.07-1.91-.08-2.86-5.31,1.05-10.45,2.84-15.28,5.3-2.54,1.34-5.02,2.95-7.42,4.5-4.43,2.88-9.02,5.85-14.22,7.26-2.57,.7-5.19,.99-7.79,.99Zm-16.79-4.13c7.46,2.36,16.14,4.4,24.32,2.18,5.05-1.37,9.57-4.3,13.94-7.14,2.42-1.57,4.92-3.19,7.5-4.55,5.1-2.6,10.53-4.45,16.14-5.51l.59-.11v.6c0,1.14,.04,2.28,.08,3.42l.03,.79c3.91-.05,7.8-.63,11.56-1.73,.48-.11,.91-.31,1.27-.59,.28-.3,.53-.74,.67-1.2,1.13-3.17,1.55-6.58,1.21-9.89v-.03s0-.03,0-.03c.09-4.14-.57-8.21-1.94-12.11-.85-.36-5.66,.59-23.38,6.99-1.22,.44-2.1,.76-2.46,.88-6.84,2.26-12.2,6.14-17.88,10.24-.69,.5-1.39,1.01-2.1,1.52-3.15,2.26-6.41,4.6-10.12,5.93-1.86,.67-3.94,1.07-5.94,1.46-1.97,.39-4.01,.78-5.86,1.43-3.33,1.15-7,3.7-7.61,7.45Zm75.34-35.97s0,0,0,0c0,0,0,0,0,0Z" fill="#002346"></path>
  </g>
  <g>
    <path d="M465.6,570c-3.51,0-7.2-.14-10.33,1.47-3.82,2-6,6-7.91,9.87,23.46,4.39,47.7,1.56,69.52-8.11,.19,2.21-.1,4.43-.85,6.52,5.75,.59,11.53,.78,17.3,.56,.61,.03,1.23-.09,1.79-.34,.67-.44,1.19-1.07,1.48-1.81,1.53-3.05,2.6-6.31,3.15-9.68,.28-1.16,.22-2.38-.19-3.51-.79-1.32-2.08-2.27-3.57-2.65-10.07-3.57-20.94,.8-30.75,3.17-12.98,3.13-26.29,4.64-39.64,4.51Z" fill="#000000"></path>
    <path d="M469.17,583.87c-7.29,0-14.62-.68-21.9-2.04l-.65-.12,.29-.59c1.97-3.98,4.21-8.04,8.13-10.09,3.01-1.55,6.45-1.53,9.78-1.53h.78c13.3,.14,26.59-1.38,39.52-4.49,1.77-.43,3.54-.91,5.42-1.42,8.47-2.31,17.23-4.71,25.62-1.73,1.59,.4,2.97,1.42,3.83,2.87,.49,1.31,.56,2.62,.25,3.89-.55,3.38-1.63,6.69-3.19,9.79-.32,.8-.89,1.51-1.65,2-.7,.32-1.39,.44-2.08,.42-5.73,.22-11.58,.03-17.33-.56l-.64-.07,.22-.6c.64-1.78,.94-3.71,.87-5.6-15.05,6.56-31.08,9.89-47.26,9.89Zm-21.06-2.9c23.26,4.22,46.95,1.39,68.57-8.2l.64-.28,.06,.7c.18,2.05-.06,4.16-.67,6.13,5.5,.54,11.09,.71,16.61,.5,.58,.02,1.12-.08,1.61-.3,.51-.34,.96-.89,1.22-1.54,1.53-3.05,2.58-6.26,3.12-9.58,.27-1.11,.21-2.22-.17-3.26-.69-1.13-1.85-1.99-3.22-2.34-8.14-2.88-16.75-.53-25.07,1.74-1.8,.49-3.66,1-5.44,1.43-13.01,3.13-26.38,4.64-39.76,4.52h-.78c-3.21,0-6.53-.02-9.32,1.42-3.46,1.81-5.57,5.42-7.4,9.05Z" fill="#002346"></path>
  </g>
  <g>
    <path d="M423.87,337.54c-9.93-.28-19.85-.35-29.78-.2-1.18-.13-2.37,.21-3.32,.93-1,1.05-.84,2.75-.43,4.16,1.9,6.55,9.62,16.71,17.45,14.35,8.08-2.42,14.45-11.31,16.08-19.24Z" fill="#f2b3c1"></path>
    <path d="M405.42,357.63c-1.64,0-3.33-.46-5.04-1.39-5.06-2.75-9.2-9.09-10.52-13.67-.59-2.04-.4-3.65,.55-4.64,1.11-.86,2.42-1.22,3.73-1.08,9.81-.15,19.84-.08,29.74,.2l.6,.02-.12,.58c-1.56,7.59-7.85,17.05-16.43,19.62-.82,.25-1.66,.37-2.51,.37Zm-11.8-19.82c-.94,0-1.82,.3-2.55,.85-.82,.87-.59,2.45-.25,3.62,1.27,4.38,5.22,10.45,10.04,13.07,2.35,1.27,4.63,1.59,6.78,.94,7.99-2.39,13.91-11.08,15.61-18.28-9.69-.26-19.5-.33-29.15-.18-.16-.02-.32-.02-.48-.02Z" fill="#002346"></path>
  </g>
  <g>
    <path d="M372.04,325.83l42.19,32.51c1.71,1.32,2.03,3.79,.7,5.5-.14,.18-.29,.35-.46,.5h0c-1.45,1.32-3.64,1.37-5.15,.12l-41.12-34.18,3.84-4.45Z" fill="#b8b8b7"></path>
    <path d="M411.83,365.86c-1,0-2.01-.34-2.82-1.02l-41.51-34.51,4.48-5.19,.37,.29,42.19,32.51c.93,.72,1.53,1.77,1.68,2.94,.15,1.17-.17,2.33-.89,3.26-.16,.2-.33,.39-.52,.57-.84,.76-1.91,1.15-2.98,1.15Zm-42.91-35.64l40.73,33.85c1.31,1.09,3.24,1.04,4.49-.1,.15-.13,.28-.28,.4-.44,.56-.72,.8-1.62,.69-2.53s-.58-1.71-1.3-2.27l-41.81-32.22-3.2,3.71Z" fill="#002346"></path>
  </g>
  <g>
    <path d="M427.88,324.31c-3.64,1.25-8.66,2.68-11.87,4.81-3.21,2.13-6.09-2.46-9.37-3.44-3.51-1-6.61-.29-10.21,.23-4.53,.66-7.92,3-11.59,5.77-3.7,2.77-7.91,4.75-12.4,5.84-2.37,7.75,16.53,2.05,18.93,1.61,2.55-.47,4.41-.58,6.81,.55,5.14,2.43,7.67,3.08,12.96,2.72,1.07-.07,2.13,.19,3.05,.73,3.81,2.19,8.3,3.41,12.09-.54,2.43-2.53,7-5,9.05-7.62,1.18-1.55,1.3-.5,.11-3.4-1.48-3.64-4.29-5.19-7.56-7.26Z" fill="#f2b3c1"></path>
    <path d="M420.61,345.69c-2,0-4.21-.71-6.67-2.12-.86-.5-1.82-.73-2.77-.66-5.5,.37-8.12-.37-13.21-2.77-2.21-1.04-3.92-.99-6.51-.51-.3,.05-.86,.19-1.6,.38-7.23,1.78-14.95,3.26-17.39,.69-.76-.81-.93-1.92-.51-3.31l.08-.27,.28-.07c4.45-1.08,8.56-3.01,12.22-5.75,3.72-2.81,7.18-5.19,11.82-5.87,.47-.07,.93-.14,1.39-.21,3.02-.47,5.88-.91,9.03,0,1.27,.38,2.44,1.23,3.57,2.05,1.94,1.41,3.62,2.63,5.39,1.45,2.7-1.79,6.56-3.07,9.96-4.19,.7-.23,1.38-.46,2.02-.67l.23-.08,.91,.57c3.01,1.89,5.62,3.53,7.05,7.05,.18,.44,.33,.79,.45,1.07,.51,1.18,.63,1.46-.04,2.15-.15,.15-.34,.35-.59,.67-1.18,1.5-3.12,2.94-5,4.33-1.49,1.1-3.02,2.23-4.08,3.34-1.76,1.83-3.76,2.75-6.03,2.75Zm-9.12-3.79c1.02,0,2.04,.28,2.96,.8,4.79,2.76,8.54,2.61,11.48-.45,1.12-1.17,2.69-2.33,4.21-3.45,1.83-1.35,3.72-2.74,4.81-4.13,.27-.36,.5-.59,.66-.76,.08-.08,.17-.17,.19-.21-.01-.06-.17-.43-.35-.85-.12-.28-.27-.64-.46-1.08-1.31-3.23-3.67-4.71-6.66-6.58l-.51-.32c-.57,.19-1.18,.39-1.8,.6-3.34,1.1-7.13,2.36-9.73,4.08-2.35,1.56-4.47,.01-6.53-1.48-1.06-.77-2.17-1.57-3.26-1.9-2.94-.84-5.56-.43-8.6,.03-.46,.07-.92,.14-1.4,.21-4.4,.64-7.75,2.95-11.36,5.67-3.69,2.76-7.83,4.73-12.3,5.86-.22,.9-.11,1.58,.35,2.06,2.36,2.5,12.58-.02,16.42-.97,.77-.19,1.35-.33,1.66-.39,2.73-.5,4.67-.56,7.11,.59,4.99,2.36,7.39,3.04,12.71,2.68,.13,0,.25-.01,.38-.01Z" fill="#002346"></path>
  </g>
  <g>
    <path d="M389.7,338.42c-2.53,2-6.1,3.31-9.3,4.72-1.19,.51-1.75,1.89-1.24,3.08,.28,.66,.85,1.16,1.55,1.35,4.6,1.21,14.02-2.37,16.48-7,.85-1.59-.26-3.5-2.06-3.53-2-.03-4.31,.49-5.43,1.38Z" fill="#f2b3c1"></path>
    <path d="M382.81,348.31c-.81,0-1.56-.08-2.22-.26-.85-.23-1.54-.82-1.88-1.63-.62-1.45,.06-3.12,1.5-3.74,.59-.26,1.2-.52,1.81-.78,2.64-1.12,5.37-2.29,7.38-3.87h0c1.15-.91,3.51-1.51,5.75-1.49,1.02,.02,1.93,.54,2.44,1.41,.52,.88,.54,1.94,.06,2.85-2.28,4.29-9.75,7.5-14.83,7.5Zm12.15-10.77c-1.95,0-4,.53-4.94,1.27h0c-2.11,1.67-4.91,2.86-7.61,4.01-.61,.26-1.21,.51-1.8,.78-.94,.4-1.38,1.49-.98,2.43,.22,.52,.67,.91,1.22,1.06,4.27,1.12,13.54-2.3,15.91-6.75,.32-.6,.31-1.3-.03-1.88-.33-.57-.93-.91-1.6-.92-.06,0-.11,0-.17,0Z" fill="#002346"></path>
  </g>
  <g>
    <path d="M387.99,345.12c-2.74,1.05-4.43,3.99-3.65,6.82,.17,.63,.46,1.19,.86,1.61,5.2,5.38,14.24-3.29,17.16-7.19,5.85-7.82-3.36-6-7.86-3.92-1.94,.85-4.1,1.75-6.52,2.68Z" fill="#f2b3c1"></path>
    <path d="M389.2,355.77c-1.69,0-3.15-.63-4.35-1.86-.45-.46-.78-1.08-.99-1.83-.83-2.99,.91-6.25,3.95-7.42,2.24-.86,4.42-1.76,6.49-2.67,2.54-1.17,8.35-2.95,10.02-.89,.91,1.13,.4,2.95-1.55,5.56-1.81,2.41-7.68,8.75-13.13,9.09-.15,0-.3,.01-.45,.01Zm12.38-14.62c-1.87,0-4.61,.71-6.85,1.75-2.09,.92-4.29,1.83-6.55,2.69h0c-2.57,.99-4.04,3.72-3.35,6.22,.16,.58,.41,1.06,.74,1.4,1.09,1.12,2.44,1.65,4.01,1.55,4.5-.28,9.99-5.48,12.39-8.69,1.58-2.11,2.14-3.65,1.58-4.33-.33-.4-1.04-.58-1.97-.58Z" fill="#002346"></path>
  </g>
  <g>
    <path d="M392.63,350.52c-2.15,1.14-3.11,3.86-1.87,5.95,3.57,6.03,18.71-3.77,17.26-10.83-1.36-6.48-7.17,.41-9.19,1.95-1.28,.98-4.08,1.79-6.21,2.92Z" fill="#f2b3c1"></path>
    <path d="M394.47,358.85c-1.86,0-3.29-.72-4.13-2.13-.63-1.07-.79-2.33-.44-3.56,.37-1.32,1.28-2.45,2.5-3.09,.93-.5,1.97-.92,2.98-1.34,1.27-.53,2.48-1.02,3.16-1.54,.32-.24,.76-.65,1.26-1.11,1.94-1.78,4.6-4.22,6.67-3.56,1.01,.32,1.7,1.34,2.05,3.02,.96,4.67-4.6,10.33-10.2,12.49-1.42,.55-2.72,.82-3.85,.82Zm11.27-15.44c-1.54,0-3.83,2.11-5.26,3.41-.52,.48-.98,.89-1.33,1.17-.79,.6-2.05,1.12-3.39,1.67-.98,.4-2,.82-2.89,1.3h0c-.98,.52-1.71,1.42-2.01,2.48-.27,.96-.15,1.95,.34,2.77,1.52,2.57,5.24,1.48,6.76,.89,5.11-1.97,10.4-7.36,9.58-11.36-.27-1.3-.74-2.06-1.38-2.27-.14-.04-.28-.06-.43-.06Z" fill="#002346"></path>
  </g>
  <g>
    <path d="M397.72,356.07c3.07,8.76,15.51-1.25,14.12-8-.58-2.8-2.19-3.9-4.75-1.77-1.35,1.13-1.92,3.12-3.09,4.42-1.59,1.82-6.22,2.97-6.28,5.35Z" fill="#f2b3c1"></path>
    <path d="M401.97,360c-2.19,0-3.86-1.31-4.72-3.76l-.03-.09v-.09c.05-1.75,1.95-2.82,3.78-3.86,1.02-.58,2.07-1.17,2.62-1.81,.48-.54,.86-1.2,1.25-1.9,.52-.93,1.07-1.89,1.89-2.58,1.3-1.08,2.47-1.46,3.46-1.11,1.02,.36,1.74,1.45,2.1,3.16,.94,4.58-4.05,10.52-8.61,11.78-.61,.17-1.19,.25-1.74,.25Zm-3.75-4c1.16,3.17,3.48,3.27,5.22,2.79,4.08-1.13,8.73-6.58,7.9-10.61-.28-1.33-.79-2.19-1.45-2.42-.8-.28-1.8,.35-2.49,.93-.69,.58-1.16,1.41-1.67,2.3-.4,.72-.82,1.46-1.37,2.07-.66,.76-1.74,1.37-2.88,2.01-1.56,.88-3.16,1.79-3.27,2.93Z" fill="#002346"></path>
  </g>
  <g>
    <path d="M370.26,331.64s-61.53-5.64-81.72-55.1l7-11.36s47.65,2.92,77.93,61.51l-3.21,4.95Z" fill="#000000"></path>
    <path d="M370.52,332.17l-.3-.03c-.62-.06-62.06-6.24-82.14-55.41l-.1-.23,7.29-11.83,.3,.02c.48,.03,48.28,3.61,78.34,61.78l.13,.26-3.53,5.45Zm-81.42-55.58c19.22,46.64,76.25,54,80.91,54.53l2.88-4.45c-28.56-55.02-73.03-60.57-77.09-60.96l-6.71,10.88Z" fill="#002346"></path>
  </g>
  <g>
    <path d="M294.6,277.91s37,12.48,67.53,47.73c.01,0-49.01-9.66-67.53-47.73Z" fill="#fff"></path>
    <path d="M362.51,326.85l-.65-.75c-3.66-.77-49.78-11.11-67.71-47.97l-.52-1.07,1.13,.38c.37,.12,37.39,12.9,67.64,47.75l.27,.05-.02,.23,.83,.95-.9-.18-.06,.6Zm-66.9-48.03c16.85,33.06,56.82,44.05,65.14,46.01-26.87-30.45-58.7-43.57-65.14-46.01Z" fill="#002346"></path>
  </g>
  <g opacity=".3">
    <path d="M315.77,273.82c-2.09-1-4.27-1.91-6.59-2.76l-4.45,7.27c2.27,.83,4.6,1.72,7,2.67l4.04-7.18Z" fill="#fff"></path>
    <path d="M317.79,274.83l-4.14,7c5.58,2.28,11,4.92,16.24,7.9l2.15-4.9c-4.31-3.92-9.1-7.28-14.25-10Z" fill="#fff"></path>
    <path d="M334.01,292.24c2.25,1.44,4.42,3.01,6.5,4.69l1.62-2c-2.14-2.36-4.19-4.5-6.21-6.49l-1.91,3.8Z" fill="#fff"></path>
  </g>
  <g>
    <path d="M447.77,337.78c-3.37,1.77-7.31,2.61-10.67,4.37-3.12-6.99-7.04-13.59-11.69-19.67l8.39-4.93c4.34,6.73,9.64,13.5,13.97,20.23Z" fill="#fff"></path>
    <path d="M436.86,342.84l-.22-.49c-3.1-6.95-7.01-13.53-11.63-19.57l-.34-.45,9.29-5.46,.26,.4c2.15,3.34,4.58,6.75,6.94,10.04,2.38,3.34,4.85,6.79,7.03,10.19l.3,.46-.48,.25c-1.72,.9-3.6,1.58-5.42,2.22-1.77,.63-3.61,1.29-5.25,2.15l-.47,.25Zm-10.71-20.21c4.41,5.84,8.17,12.17,11.19,18.84,1.57-.78,3.27-1.38,4.91-1.96,1.61-.58,3.27-1.17,4.8-1.92-2.09-3.22-4.44-6.5-6.7-9.68-2.27-3.17-4.6-6.45-6.7-9.68l-7.49,4.4Z" fill="#002346"></path>
  </g>
  <g>
    <path d="M556.99,384.9c-27.76,14.18-59.54,18.43-90.05,12.07,3.4-27.74-.26-55.8-3.9-83.51-3.42-25.91-6.83-51.82-10.24-77.72-1.41-10.69-5.9-22.32-6.72-33.07s3.35-23.26,13.51-26.87c9-3.2,18.87,1.82,26.32,7.84,25.35,20.48,38,52.57,47.49,83.75,11.56,37.92,18.25,78.22,23.59,117.51Z" fill="#000000"></path>
    <path d="M494.73,400.33c-9.33,0-18.68-.95-27.89-2.87l-.45-.09,.06-.46c3.41-27.78-.31-56.05-3.9-83.38-3.42-25.91-6.83-51.82-10.24-77.72-.63-4.8-1.92-9.91-3.16-14.84-1.53-6.06-3.11-12.32-3.56-18.25-.8-10.53,3.19-23.59,13.84-27.38,10.27-3.65,21.2,3.39,26.8,7.92,25.81,20.85,38.57,54.16,47.65,83.99,12.12,39.77,18.74,81.76,23.61,117.59l.05,.35-.32,.16c-19.39,9.9-40.89,14.98-62.49,14.98Zm-27.24-3.76c30.04,6.16,61.6,1.92,88.96-11.96-4.86-35.71-11.46-77.5-23.52-117.08-9.04-29.69-21.72-62.82-47.33-83.51-5.44-4.39-16.03-11.24-25.84-7.76-10.16,3.61-13.95,16.2-13.18,26.36,.45,5.85,2.01,12.07,3.53,18.09,1.25,4.96,2.55,10.1,3.19,14.96,3.41,25.9,6.82,51.81,10.24,77.72,3.58,27.25,7.28,55.42,3.96,83.18Z" fill="#002346"></path>
  </g>
  <g>
    <path d="M543.07,341.38c-7.38,33.55-11.82,67.68-13.27,102-.46,10.78-.62,21.6-1.91,32.31-1.7,14.13-5.33,28-8.95,41.71-4,15.33-8.03,30.67-12.1,46,8.08,2.25,16.3,3.92,24.62,5,6.1,.82,12.27,.94,18.39,.33,16.93-2,32.12-12.26,49.1-13.75-.09-27.83-.18-55.68-1.7-83.47-1.1-19.57-2.89-39.08-5.36-58.55-1.9-14.87-4.24-29.74-8.31-44.17-1.77-6.26-3.94-12.57-8-17.69-7.05-9-21.53-13-32.51-9.72Z" fill="#b8b8b7"></path>
    <path d="M542.07,569.62c-3.57,0-7.14-.24-10.67-.72-8.31-1.08-16.62-2.76-24.69-5.01l-.48-.13,.13-.48c4.03-15.19,8.1-30.66,12.1-46,3.38-12.81,7.21-27.32,8.94-41.64,1.02-8.44,1.33-17.1,1.64-25.47,.08-2.27,.17-4.54,.26-6.8,1.45-34.25,5.92-68.6,13.28-102.09l.06-.29,.28-.08c11.5-3.43,26.01,.91,33.05,9.89,4.15,5.23,6.34,11.68,8.09,17.86,4.3,15.26,6.62,30.93,8.32,44.24,2.46,19.39,4.27,39.1,5.36,58.59,1.52,27.8,1.61,56.1,1.7,83.48v.46s-.46,.06-.46,.06c-8.67,.76-17.04,3.89-25.13,6.91-7.7,2.88-15.67,5.86-23.95,6.83-2.61,.26-5.23,.39-7.84,.39Zm-34.62-6.56c7.88,2.17,15.97,3.8,24.07,4.85,6.05,.82,12.2,.93,18.28,.33,8.15-.96,16.06-3.92,23.71-6.78,8.02-3,16.3-6.09,24.94-6.93-.09-27.24-.19-55.37-1.7-82.99-1.09-19.46-2.9-39.15-5.36-58.51-1.7-13.28-4.01-28.9-8.29-44.1-1.72-6.08-3.87-12.42-7.91-17.51-6.74-8.61-20.61-12.8-31.69-9.63-7.31,33.34-11.75,67.53-13.2,101.62-.1,2.26-.18,4.53-.26,6.8-.31,8.39-.63,17.07-1.65,25.55-1.73,14.39-5.57,28.94-8.96,41.78-3.96,15.18-7.99,30.49-11.97,45.52Z" fill="#002346"></path>
  </g>
  <g>
    <path d="M658.49,559.31l-19.47,8.66c-3.62,1.61-7.24,3.22-11,4.5-9.08,3.12-18.74,4.19-28.28,3.15-3.39-11-6.78-22-10.18-33-2.43-7.87-4.86-15.75-6.51-23.81-2.1-10.2-2.94-20.62-3.78-31l-6.63-82.29c21-20.22,44.1-35.53,71.45-45.57,2.58-1,5.35-1.85,8-1.25,5.69,24.27,5.87,49.51,.51,73.86-1.78,8-4.13,15.92-5.18,24.06-1.71,13.26,.07,26.69,1.86,39.93,2.71,20.29,6.48,42.47,9.21,62.76Z" fill="#b8b8b7"></path>
    <path d="M606.76,576.5c-2.36,0-4.73-.13-7.07-.38l-.33-.04-.1-.31c-3.39-11-6.78-22-10.18-33-2.39-7.74-4.86-15.75-6.52-23.86-2.1-10.2-2.96-20.76-3.78-30.98l-6.66-82.61,.17-.16c21.9-21.08,45.33-36.03,71.62-45.68,2.65-1.03,5.5-1.9,8.28-1.27l.3,.07,.07,.3c5.67,24.19,5.85,49.81,.51,74.08-.54,2.43-1.14,4.9-1.73,7.28-1.34,5.45-2.72,11.09-3.44,16.74-1.72,13.33,.1,26.79,1.86,39.8,1.37,10.27,3.04,21.21,4.66,31.79,1.57,10.3,3.2,20.96,4.55,30.97l.05,.37-19.81,8.81c-3.59,1.59-7.27,3.23-11.04,4.52-6.86,2.35-14.15,3.56-21.43,3.56Zm-6.63-1.34c9.31,.97,18.89-.12,27.74-3.16,3.73-1.27,7.39-2.9,10.94-4.47l19.15-8.52c-1.34-9.9-2.94-20.41-4.5-30.58-1.62-10.58-3.29-21.52-4.66-31.8-1.77-13.08-3.6-26.6-1.86-40.06,.74-5.7,2.12-11.37,3.46-16.85,.58-2.38,1.18-4.84,1.72-7.26,5.28-24.02,5.13-49.37-.44-73.33-2.43-.44-4.99,.35-7.41,1.29-26.11,9.58-49.37,24.4-71.11,45.3l6.61,82.05c.83,10.27,1.68,20.8,3.77,30.94,1.65,8.06,4.11,16.04,6.5,23.76,3.37,10.9,6.73,21.79,10.08,32.69Z" fill="#002346"></path>
  </g>
  <g>
    <path d="M495.27,282.51c2.55,20.18-.72,43.17-12.37,49-11.65,5.83-25.21,8-38.11,9.74-5.1-8.2-10.36-15.63-15.47-23.83,13.66-11.9,34.1-22.3,37.31-40.13,2.29-12.83,1.77-26-1.53-38.6,14.12,21.69,18.19,20.84,30.17,43.82Z" fill="#b8b8b7"></path>
    <path d="M444.54,341.79l-.17-.28c-2.56-4.12-5.21-8.12-7.78-11.98-2.53-3.82-5.15-7.77-7.69-11.85l-.23-.36,.32-.28c3.35-2.92,7.03-5.69,10.91-8.61,11.72-8.83,23.84-17.95,26.23-31.23,2.26-12.66,1.74-25.94-1.52-38.38l-.78-2.99,1.68,2.59c5.9,9.06,10.06,14.21,13.73,18.75,5.08,6.28,9.47,11.71,16.46,25.11l.05,.17c2.47,19.56-.43,43.4-12.64,49.51-11.68,5.85-25.31,8.04-38.27,9.79l-.32,.04Zm-14.57-24.27c2.46,3.94,5,7.76,7.45,11.46,2.51,3.79,5.1,7.7,7.62,11.73,12.78-1.73,26.18-3.92,37.63-9.65,11.76-5.88,14.52-29.2,12.11-48.4-6.92-13.26-11.27-18.64-16.31-24.87-3.35-4.14-7.11-8.79-12.21-16.42,2.67,11.76,2.97,24.15,.85,36-2.46,13.66-14.74,22.91-26.62,31.85-3.75,2.82-7.3,5.49-10.54,8.29Z" fill="#002346"></path>
  </g>
  <g>
    <path d="M539.73,323.87c-7,6.77-16.85,10.15-26.59,9.92-8.14-22.28-22.16-41.82-34.83-61.88-12.67-20.06-24.33-41.64-26.83-65.23-.63-6-5.28-11.32-5.76-17.34s1.58-12.63,6.63-16c5.05-3.37,12.3-2.53,17.64,.63s9.25,8.2,12.85,13.26c28.58,40.2,43.52,89.2,56.89,136.64Z" fill="#b8b8b7"></path>
    <path d="M514.09,334.3c-.32,0-.64,0-.96-.01h-.34s-.12-.33-.12-.33c-6.65-18.2-17.41-34.85-27.82-50.94-2.29-3.55-4.67-7.22-6.96-10.84-12.46-19.73-24.35-41.32-26.9-65.44-.3-2.86-1.58-5.66-2.82-8.35-1.32-2.88-2.69-5.85-2.94-9-.44-5.46,1.14-12.64,6.85-16.46,5.56-3.71,13.14-2.36,18.17,.62,5.53,3.27,9.61,8.63,13,13.4,28.17,39.62,43.02,87.32,56.96,136.79l.08,.29-.21,.21c-6.65,6.43-16.07,10.07-25.99,10.07Zm-.6-1c9.76,.15,19.09-3.33,25.68-9.58-13.9-49.29-28.71-96.78-56.73-136.2-3.49-4.9-7.34-9.95-12.7-13.12-4.77-2.82-11.91-4.12-17.11-.65-4.41,2.94-6.93,9.05-6.41,15.54,.24,2.98,1.57,5.87,2.85,8.66,1.27,2.77,2.59,5.64,2.91,8.67,2.54,23.92,14.36,45.39,26.76,65.01,2.29,3.62,4.66,7.29,6.95,10.83,10.38,16.05,21.11,32.64,27.81,50.82Z" fill="#002346"></path>
  </g>
  <g>
    <path d="M478.96,248.63c-1.1-20.56-2.45-42-12.77-59.82-2.26-3.9-5.17-7.76-9.38-9.36-18.45-7-7.38,24.71-4.7,31.52,5.7,14.58,14.92,27.52,26.85,37.66Z" fill="#fff"></path>
    <path d="M479.52,249.77l-.89-.75c-11.95-10.16-21.28-23.25-26.99-37.86-1.02-2.58-9.74-25.4-3.59-31.63,1.87-1.9,4.88-2.08,8.93-.54,4.7,1.79,7.75,6.32,9.64,9.58,10.6,18.31,11.79,40.48,12.84,60.04l.06,1.16Zm-27.32-70.81c-1.44,0-2.59,.42-3.43,1.27-4.64,4.7,.21,21.42,3.81,30.56,5.51,14.09,14.42,26.76,25.82,36.7-1.03-19.16-2.37-40.69-12.64-58.42-1.81-3.12-4.73-7.47-9.12-9.14-1.7-.64-3.18-.97-4.44-.97Z" fill="#002346"></path>
  </g>
  <g>
    <path d="M443.03,177.71c-2.97,9.56-3.54,19.71-1.66,29.55,5.3,27.36,14.16,56.54,17.79,84.2,.02,.13,.2,.13,.22,0,8.05-38.62,2.02-82.45-15.96-117.53-.02,1.27-.16,2.53-.4,3.77Z" fill="#fff"></path>
    <path d="M459.28,292.06s-.02,0-.02,0c-.3-.01-.55-.23-.58-.53-2.21-16.81-6.4-34.38-10.45-51.38-2.59-10.85-5.26-22.07-7.34-32.79-1.89-9.87-1.32-20.17,1.67-29.77,.23-1.2,.36-2.43,.39-3.66l.03-2,.91,1.78c18.05,35.23,24.04,79.29,16,117.86-.06,.29-.31,.49-.6,.49Zm-15.46-116.24c-.07,.67-.17,1.33-.3,1.99v.05c-2.95,9.45-3.52,19.59-1.66,29.31,2.07,10.7,4.74,21.91,7.33,32.75,3.88,16.25,7.88,33.04,10.16,49.2,7.18-37.21,1.43-79.24-15.53-113.3Z" fill="#002346"></path>
  </g>
  <path d="M454.99,113.53s-17.18,15.88-26.87,14.91-5.37-20.7-5.37-20.7c0,0,21.65-1.91,32.24,5.79Z" fill="#000000"></path>
  <g opacity=".2">
    <path d="M454.99,113.53s-17.18,15.88-26.87,14.91-5.37-20.7-5.37-20.7c0,0,21.65-1.91,32.24,5.79Z"></path>
  </g>
  <g>
    <ellipse cx="398.26" cy="148.97" rx="39.26" ry="51.98" transform="translate(-21.13 219.09) rotate(-30)" fill="#f2b3c1"></ellipse>
    <path d="M408.56,198.58c-16.21,0-33.99-11.12-44.73-29.73-14.47-25.06-10.79-54.37,8.19-65.33h0c18.99-10.96,46.2,.51,60.67,25.57,14.47,25.06,10.79,54.37-8.19,65.33-4.89,2.82-10.32,4.16-15.94,4.16Zm-36.04-94.19c-18.51,10.69-22.02,39.38-7.83,63.96,14.19,24.58,40.8,35.89,59.31,25.2,18.51-10.69,22.02-39.38,7.83-63.96-14.19-24.58-40.8-35.89-59.31-25.2h0Z" fill="#002346"></path>
  </g>
  <g>
    <path d="M386.7,200.84l-.48-3c.76,1.03,1.73,1.89,2.84,2.53l.14-2.6c.96,.99,2.37,1.41,3.72,1.12,1.33-.31,2.59-.85,3.73-1.59,.97-.49,1.83-1.17,2.53-2,.69-.86,.78-2.05,.24-3l3.17,2.94-1.8-5.3,2.22,2.31c.72,.85,1.61,1.53,2.62,2,1.04,.45,2.25,.17,3-.68,1-1.41-.25-3.29-1.54-4.43-6.35-5.5-14.91-7.71-23.13-5.98-1.47,.31-5.39,1.12-6.11,2.63-.49,1,.77,3.93,1.19,5,.81,1.98,1.87,3.85,3.17,5.56,.72,.88,4.39,3.57,4.49,4.49Z" fill="#002346"></path>
    <path d="M389.52,201.21l-.7-.4c-.67-.38-1.28-.83-1.83-1.35l.2,1.26s0,.05,.01,.07l-.99,.13v-.03c-.12-.46-1.8-1.9-2.71-2.68-.74-.64-1.39-1.19-1.67-1.54-1.33-1.75-2.42-3.66-3.25-5.69l-.13-.32c-.77-1.92-1.55-4.06-1.05-5.08,.72-1.5,3.64-2.3,6.4-2.89,8.38-1.76,17.19,.51,23.62,6.08,1.49,1.31,2.8,3.43,1.62,5.1-.93,1.06-2.36,1.38-3.6,.85-1.08-.5-2.04-1.24-2.8-2.14l-.64-.67,1.71,5.05-3.43-3.18c-.03,.66-.27,1.3-.7,1.84-.75,.9-1.66,1.61-2.69,2.13-1.15,.75-2.46,1.3-3.84,1.63-1.19,.26-2.4,.04-3.39-.6l-.13,2.43Zm-4.12-5.33l1.22,1.66c.56,.76,1.22,1.41,1.98,1.95l.16-2.89,.8,.82c.85,.87,2.07,1.24,3.26,.98,1.26-.3,2.47-.81,3.56-1.52,.96-.49,1.76-1.12,2.42-1.9,.56-.69,.63-1.65,.19-2.43l-1.62-2.83,4.11,3.81-1.89-5.56,3.78,3.93c.69,.81,1.54,1.46,2.47,1.89,.83,.36,1.81,.13,2.41-.56,.82-1.16-.55-2.89-1.5-3.72-6.19-5.36-14.68-7.56-22.7-5.87-1.32,.28-5.16,1.09-5.76,2.36-.35,.72,.72,3.4,1.07,4.28l.13,.33c.79,1.94,1.83,3.77,3.1,5.44,.22,.27,.86,.82,1.54,1.4,.69,.59,1.28,1.11,1.75,1.56l-.5-3.13Z" fill="#002346"></path>
  </g>
  <g>
    <path d="M372.13,132.74c1.8,4.23,4.47,8.43,8.66,10.32,2.72,1.22,5.79,1.34,8.77,1.34,3.58,0,7.16-.13,10.73-.39,5,5.44,9.29,11.17,12.07,18,2.72-1.62,5.83-3.73,8.56-5.35-2.82-6.13-5.19-12.69-8-18.81,7.79,5.73,19,7.06,28.09,3.79-5.94-12.36-13.41-23.86-23.14-33.48l-45.74,24.58Z" fill="#002346"></path>
    <path d="M412.12,162.74l-.22-.54c-2.41-5.93-6.06-11.39-11.81-17.67-3.49,.25-7.03,.37-10.52,.37-2.98,0-6.13-.11-8.97-1.38-3.68-1.66-6.59-5.12-8.92-10.58l-.18-.42,46.47-24.97,.26,.26c9.08,8.98,16.68,19.97,23.24,33.62l.24,.5-.52,.19c-8.78,3.16-19.42,1.99-27.07-2.85,1.13,2.56,2.21,5.19,3.26,7.75,1.28,3.13,2.6,6.36,4.01,9.43l.19,.41-.39,.23c-1.38,.82-2.88,1.78-4.33,2.7-1.42,.91-2.88,1.84-4.23,2.65l-.5,.3Zm-11.62-19.24l.16,.18c5.75,6.26,9.46,11.72,11.94,17.61,1.2-.73,2.47-1.54,3.71-2.33,1.32-.85,2.69-1.72,3.97-2.49-1.35-2.97-2.62-6.06-3.84-9.06-1.27-3.1-2.58-6.3-3.97-9.34l-.81-1.76,1.56,1.15c7.32,5.38,18.14,6.92,27.1,3.9-6.39-13.18-13.76-23.84-22.54-32.58l-45.01,24.19c2.19,4.98,4.88,8.13,8.22,9.64,2.67,1.2,5.69,1.3,8.56,1.3,3.55,0,7.15-.13,10.69-.39l.24-.02Z" fill="#002346"></path>
  </g>
  <g>
    <path d="M416.31,142.74c-2.49-3.37-4.54-7.04-6.1-10.92-.85-2.09,.58-4.89,1.53-6.94,.9-2.11,2.72-3.71,4.93-4.33,1.05-.12,2.1,.16,2.95,.78,3.87,3.86,4.92,9.66,5.5,15.1,.32,2.2,.32,4.43,0,6.63-.33,2.22-1.51,4.22-3.3,5.58-2.1-1.7-3.96-3.69-5.51-5.9Z" fill="#f2b3c1"></path>
    <path d="M421.81,149.28l-.3-.25c-2.14-1.73-4.02-3.75-5.6-6-2.51-3.4-4.58-7.11-6.16-11.03-.88-2.16,.36-4.81,1.36-6.94l.18-.39c.96-2.25,2.88-3.93,5.25-4.6,1.25-.15,2.42,.17,3.38,.86,4,3.98,5.1,9.77,5.7,15.45,.33,2.23,.33,4.51,0,6.75-.35,2.37-1.59,4.46-3.49,5.91l-.31,.24Zm-4.67-28.25c-.14,0-.28,0-.42,.02-2,.57-3.68,2.04-4.52,4.03l-.19,.41c-.91,1.96-2.05,4.39-1.34,6.15,1.55,3.84,3.58,7.48,6.04,10.81h0c1.45,2.08,3.16,3.94,5.11,5.55,1.52-1.27,2.51-3.04,2.8-5.01,.31-2.15,.31-4.33,0-6.49-.59-5.52-1.64-11.11-5.36-14.82-.59-.42-1.34-.66-2.13-.66Z" fill="#002346"></path>
  </g>
  <path d="M383.46,84.16c5.82,12,10.86,24.35,15.08,37,9.16-5.03,19.18-8.31,29.55-9.68,.43-.06-4-8.53-5.57-11.42-4.18-2.16-8.57-4-12.94-5.71-8.65-3.46-17.36-6.86-26.12-10.19Z" fill="#000000"></path>
  <g>
    <path d="M423.57,101.99c-.41-.78-.78-1.46-1.06-1.96,0,0,.02,0,.03,.01-.27-.48-.46-.81-.54-.92-.77-1.08-1.59-2.16-2.47-3.21-2.61-3.14-5.72-6-9.4-7.66-9.44-4.25-19.46-8.54-29.59-9.48-.05-.08-.12-.17-.17-.24-10.01-1.14-23.32,.19-31.38,6.19-3.62,2.72-8.75,5.33-10.51,9.51-2.21,5.18-3.23,10.79-3,16.42l.54,.15c-2.41,10.61-4.09,21.37-3.01,32.15,.92,9.19,10.96,13.72,18.06,19.63l2.86,23.13s7.26-8.82,8.93-28.16c3.88-7.92,9.2-15.14,15.54-21.42,.04,.04,.08,.08,.12,.11,9.66-4.36,18.5-10.35,26.13-17.71,.01,.17,.14-.14,.3-.55,7.4-3.27,15.21-5.52,23.14-6.52,0,0,18.24-.82,26.9,2.07,0,0-5.78-11.07-31.42-11.54Z" fill="#000000"></path>
    <path d="M353.58,186.93l-2.98-24.09c-1.63-1.35-3.45-2.65-5.21-3.91-5.97-4.28-12.15-8.7-12.87-15.93-1.15-11.48,.93-23,2.92-31.84l-.43-.12v-.36c-.25-5.67,.8-11.42,3.02-16.64,1.42-3.36,4.94-5.76,8.04-7.87,.93-.63,1.81-1.23,2.63-1.84,8.51-6.34,22.42-7.35,31.74-6.29l.23,.03,.17,.24c9.9,.97,19.61,5.04,29.52,9.49,3.33,1.5,6.47,4.05,9.58,7.8,.83,.99,1.64,2.05,2.49,3.24,.08,.11,.28,.46,.57,.97l.8,1.42-.07-.03c.05,.1,.11,.21,.17,.31,25.39,.55,31.32,11.34,31.56,11.8l.57,1.1-1.17-.39c-8.47-2.83-26.54-2.05-26.72-2.05-7.66,.97-15.33,3.12-22.77,6.39-.15,.38-.28,.64-.53,.71-7.65,7.34-16.42,13.28-26.09,17.63l-.31,.14h0c-6.28,6.29-11.34,13.3-15.05,20.85-1.68,19.21-8.74,27.98-9.04,28.34l-.74,.9Zm-17.61-76.66l.65,.18-.1,.46c-2,8.83-4.15,20.45-3,31.99,.68,6.78,6.67,11.07,12.46,15.21,1.83,1.31,3.72,2.67,5.42,4.08l.15,.13,2.73,22.05c1.86-2.82,6.77-11.55,8.1-26.87l.05-.18c3.83-7.82,9.09-15.07,15.64-21.56l.35-.34,.23,.22c9.52-4.33,18.15-10.21,25.68-17.47l.06-.06c.04-.09,.08-.2,.12-.31l.07-.19,.19-.08c7.59-3.36,15.42-5.56,23.28-6.56,.75-.03,16.69-.72,25.71,1.67-2.31-2.78-10.09-9.78-30.17-10.15h-.29s-.14-.27-.14-.27c-.41-.78-.78-1.45-1.06-1.96l-.45-.82s-.02-.03-.03-.04c-.84-1.17-1.64-2.21-2.45-3.18-3.01-3.63-6.03-6.09-9.22-7.52-9.9-4.45-19.6-8.52-29.43-9.43l-.23-.02-.17-.25c-9.14-1-22.59,0-30.8,6.12-.83,.62-1.72,1.23-2.66,1.87-3.14,2.13-6.38,4.34-7.68,7.43-2.12,4.97-3.14,10.44-2.97,15.84Z" fill="#002346"></path>
  </g>
  <g>
    <path d="M458.86,191.4c-7.88-2.13-16.08-3.05-24.22-3.74,1.6-19.09,3.19-38.18,4.78-57.27,5-.51,9.8-.52,14.61,.94,4.78,18.83,5.94,40.67,4.83,60.07Z" fill="#fff"></path>
    <path d="M459.32,192.05l-.59-.16c-7.95-2.15-16.3-3.06-24.13-3.72l-.5-.04,.04-.5c1.6-19.09,3.19-38.18,4.78-57.27l.03-.41,.41-.04c4.06-.42,9.41-.68,14.81,.96l.27,.08,.07,.27c4.36,17.19,6.08,38.57,4.84,60.22l-.04,.62Zm-24.14-4.84c7.54,.65,15.54,1.54,23.22,3.55,1.16-21.22-.53-42.15-4.78-59.03-4.96-1.45-9.89-1.25-13.73-.88-1.56,18.79-3.13,37.58-4.7,56.36Z" fill="#002346"></path>
  </g>
  <g>
    <path d="M455.04,130.26c1.6,22.19,1.76,44.45,.46,66.66,28.82,31.46,50.59,68.47,65.43,108.47,14.84,40,24.45,81.71,34,123.28,23.27,2.62,43.69-10.58,62-25.18,18.31-14.6,35.51-31.68,57.5-39.74-6.42-28.39-12.83-57.76-23.83-84.68-8.13-19.78-17.75-39.46-32.87-54.58-13.73-13.72-31.23-22.92-48.44-31.9-37.85-19.75-76.44-42.58-114.25-62.33Z" fill="#000000"></path>
    <path d="M560.97,429.51c-2.01,0-4.04-.11-6.09-.34l-.35-.04-.08-.34c-9.38-40.83-19.08-83.05-33.98-123.22-15.3-41.25-37.29-77.69-65.33-108.31l-.14-.16v-.21c1.3-22.1,1.15-44.51-.45-66.59l-.06-.89,.79,.42c18.83,9.84,38.17,20.61,56.88,31.04,18.86,10.51,38.37,21.38,57.37,31.29,17.03,8.89,34.63,18.07,48.56,31.99,15.68,15.68,25.47,36.47,32.98,54.74,10.54,25.8,16.89,53.91,23.03,81.09l.93,4.1-.41,.15c-17.35,6.36-31.94,18.56-46.05,30.35-3.69,3.09-7.51,6.28-11.31,9.31-16.83,13.42-35.24,25.63-56.28,25.63Zm-5.63-1.3c23.1,2.44,43.1-10.62,61.28-25.11,3.79-3.03,7.61-6.21,11.29-9.3,14.06-11.76,28.6-23.91,45.93-30.37l-.73-3.24c-6.13-27.14-12.46-55.21-22.98-80.93-7.47-18.18-17.21-38.86-32.76-54.42-13.82-13.81-31.36-22.96-48.32-31.81-19.01-9.92-38.52-20.79-57.39-31.31-18.44-10.27-37.49-20.89-56.06-30.61,1.53,21.77,1.67,43.84,.41,65.62,28.06,30.68,50.06,67.17,65.39,108.48,14.88,40.11,24.58,82.24,33.94,123Z" fill="#002346"></path>
  </g>
  <g mask="url(#b)">
    <g opacity=".1">
      <path d="M650.6,279.07c-8.13-19.78-17.75-39.46-32.87-54.58-13.73-13.72-31.23-22.92-48.44-31.9-37.8-19.75-76.39-42.58-114.2-62.33,1.1,15.16,1.51,30.34,1.24,45.55,2.86,4.61,5.75,9.22,8.63,13.88,5.81,9.47,14.81,16.47,23.64,23.28,10.43,8.05,21,16.18,33,21.57,9.29,4.18,19.25,6.63,28.87,10,31.66,11.26,58.87,32.38,77.62,60.26,8.85-5.33,17.47-11.02,25.84-17.07-1.09-2.9-2.2-5.8-3.33-8.66Z" fill="#fff"></path>
    </g>
  </g>
  <g>
    <path d="M497.73,249.55c2.62-2.1,2.84-5.75,1.49-8.61-1.35-2.86-3.94-5.12-6.48-7.3-2.54-2.18-5.14-4.48-6.44-7.33-1.3-2.85-1-6.52,1.63-8.58,.35-.28,.85-.24,1.16,.08-.86,2.52-1.72,5.27-.53,7.69,1.37,2.77,4.91,4.12,7.8,5.82,6.53,3.84,10.58,11.37,7.72,17.71-.54,1.5-1.81,2.61-3.37,2.94-1.66,.19-4.21-1.43-2.98-2.42Z" fill="#002346"></path>
    <path d="M500.45,252.48c-1.4,0-3.03-.86-3.44-1.84-.23-.55-.08-1.09,.41-1.48h0c2.56-2.05,2.49-5.59,1.35-8.01-1.33-2.83-4-5.12-6.35-7.13-2.83-2.43-5.28-4.67-6.57-7.5-1.26-2.76-1.24-6.82,1.78-9.18,.55-.44,1.34-.39,1.83,.13l.21,.22-.1,.29c-.93,2.72-1.61,5.15-.55,7.31,1.01,2.04,3.38,3.31,5.68,4.54,.65,.35,1.3,.7,1.92,1.07,6.21,3.65,11.09,11.32,7.92,18.35-.59,1.64-1.98,2.85-3.72,3.22-.12,.01-.24,.02-.36,.02Zm-2.41-2.54c-.17,.14-.15,.22-.11,.32,.25,.6,1.7,1.34,2.72,1.22,1.35-.29,2.47-1.27,2.96-2.61,2.94-6.53-1.67-13.68-7.5-17.11-.61-.36-1.25-.7-1.89-1.05-2.44-1.31-4.96-2.66-6.1-4.98-1.25-2.55-.38-5.46,.37-7.68-.08,0-.17,.02-.24,.08-2.6,2.03-2.59,5.56-1.49,7.98,1.21,2.65,3.57,4.81,6.31,7.16,2.43,2.08,5.18,4.45,6.61,7.46,1.3,2.76,1.35,6.83-1.63,9.21Z" fill="#002346"></path>
  </g>
  <g>
    <path d="M483.69,255.32c4.16,6.07,10.19,10.6,17.18,12.9,1.89,.72,3.92,.97,5.93,.74,2.03-.27,3.77-1.6,4.55-3.5,.81-2.42-.57-5-1.94-7.14-2.71-4.26-5.54-8.44-8.49-12.55l-17.23,9.55Z" fill="#000000"></path>
    <path d="M505.37,269.54c-1.6,0-3.19-.29-4.68-.85-7.03-2.31-13.22-6.96-17.42-13.09l-.31-.45,18.1-10.03,.26,.36c2.94,4.09,5.81,8.32,8.51,12.57,1.47,2.29,2.85,4.99,1.99,7.57-.86,2.09-2.75,3.55-4.96,3.84-.5,.06-1,.08-1.49,.08Zm-20.95-14.05c4.06,5.72,9.94,10.06,16.61,12.26,1.83,.69,3.8,.94,5.72,.72,1.84-.24,3.43-1.47,4.14-3.19,.72-2.15-.56-4.58-1.9-6.68-2.61-4.11-5.37-8.2-8.22-12.17l-16.36,9.07Z" fill="#002346"></path>
  </g>
  <g>
    <path d="M539.85,249.55c-2,1.64-8.88,4.58-11.23,3.53-1.85-.82-2.16-3.65-4.17-4.42-3.84-1.45-8.5,1.74-11.9,3-3.06,1.12-11.63-.38-11.07,3.53,.71,5,11.34,5.77,15.27,5.61-4.71,1.94-9.1,4.4-13.79,6.1-5.81-2.35-8.73-5.58-15.36-4.76-1.06,4.29,6.84,6.29,9.23,8.93,1.41,1.56,1.78,3.28,3.94,3.87,1.71,.46,6.24,0,8-.66,1,3.64,3.94,3.52,7.06,3.53,1.59,0,2.3,2.15,3.84,2.57,1.25,.35,2.83-.42,4.18-.33,7.44,.52,11.46-7.42,15.72-9.94,2.91-1.73,7.5-5,10.59-5.72-1.14-3.86-10.08-14.08-10.31-14.84Z" fill="#f2b3c1"></path>
    <path d="M520.4,280.97c-.29,0-.59-.03-.87-.11-.84-.23-1.45-.87-1.99-1.43-.58-.6-1.07-1.12-1.72-1.12h-.31c-2.89,0-5.88-.01-7.07-3.4-2.09,.6-6.12,.96-7.8,.51-1.67-.46-2.38-1.5-3.13-2.61-.31-.46-.64-.95-1.05-1.4-.75-.83-2.15-1.63-3.63-2.47-3.05-1.74-6.5-3.71-5.71-6.91l.08-.33,.34-.04c4.89-.61,7.83,.93,11.23,2.7,1.3,.68,2.64,1.38,4.2,2.02,2.6-.96,5.17-2.17,7.66-3.35,1.21-.57,2.45-1.16,3.71-1.72-4.92-.19-12.71-1.46-13.36-6.03-.1-.73,.05-1.36,.47-1.87,1.15-1.39,4-1.54,6.75-1.68,1.66-.09,3.23-.17,4.17-.51,.79-.29,1.67-.7,2.6-1.13,3.06-1.43,6.54-3.04,9.65-1.87,1.2,.46,1.83,1.49,2.45,2.49,.51,.83,.99,1.61,1.75,1.94,2.05,.92,8.72-1.83,10.71-3.46l.58-.47,.21,.7c.13,.26,1.13,1.53,2.1,2.75,2.95,3.72,7.4,9.34,8.22,12.11l.15,.51-.52,.12c-2.3,.54-5.57,2.61-8.21,4.27-.81,.51-1.57,.99-2.24,1.39-1.32,.78-2.65,2.14-4.06,3.57-3.13,3.19-6.68,6.81-11.95,6.44-.52-.04-1.1,.08-1.72,.2-.56,.11-1.13,.22-1.69,.22Zm-11.3-7.35l.15,.53c.87,3.15,3.25,3.16,6.27,3.16h.31c1.07,0,1.8,.76,2.44,1.43,.49,.51,.96,1,1.53,1.16,.59,.17,1.33,.02,2.1-.13,.65-.13,1.33-.26,1.98-.22,4.82,.34,8.19-3.1,11.17-6.14,1.46-1.49,2.83-2.89,4.26-3.73,.66-.39,1.42-.87,2.22-1.38,2.5-1.58,5.58-3.53,7.98-4.25-1.12-2.77-5.31-8.05-7.87-11.29-1.03-1.31-1.61-2.04-1.93-2.48-2.44,1.68-8.82,4.37-11.3,3.26-1.03-.46-1.62-1.41-2.19-2.33-.55-.89-1.07-1.74-1.95-2.08-2.72-1.03-5.99,.49-8.87,1.84-.95,.44-1.84,.86-2.67,1.17-1.08,.4-2.72,.48-4.46,.57-2.42,.13-5.17,.27-6.03,1.32-.24,.29-.32,.65-.26,1.1,.62,4.34,10.21,5.37,14.75,5.18l2.82-.11-2.61,1.08c-2,.82-3.97,1.76-5.88,2.66-2.56,1.21-5.22,2.47-7.93,3.45l-.18,.07-.18-.07c-1.68-.68-3.09-1.42-4.46-2.13-3.3-1.72-5.92-3.09-10.29-2.64-.28,2.29,2.56,3.91,5.3,5.47,1.55,.88,3.02,1.72,3.88,2.67,.46,.51,.81,1.02,1.14,1.52,.7,1.03,1.25,1.85,2.56,2.21,1.61,.43,6.03-.02,7.69-.65l.51-.19Z" fill="#002346"></path>
  </g>
  <g>
    <path d="M500.92,245.77l-17.23,9.55c.78,1.14,1.63,2.23,2.55,3.27,5.61-3.29,11.34-6.37,17.19-9.23-.83-1.2-1.66-2.41-2.51-3.59Z" fill="#fff"></path>
    <path d="M486.14,259.23l-.27-.31c-.93-1.05-1.8-2.16-2.59-3.32l-.31-.45,18.1-10.03,.26,.36c.74,1.02,1.46,2.06,2.17,3.1l.67,.97-.52,.26c-5.81,2.84-11.58,5.94-17.16,9.21l-.35,.21Zm-1.72-3.74c.6,.85,1.25,1.67,1.93,2.46,5.32-3.11,10.81-6.06,16.34-8.78v-.02c-.64-.91-1.27-1.83-1.92-2.73l-16.36,9.07Z" fill="#002346"></path>
  </g>
  <g>
    <path d="M557.99,264.16c-3.21,1.45-6.87,3.33-10.08,4.77-3.65-6.92-7.44-13.21-11.09-20.13l10.48-4.13c4.02,6.2,6.67,13.31,10.69,19.49Z" fill="#fff"></path>
    <path d="M547.69,269.58l-.22-.42c-1.82-3.45-3.71-6.81-5.54-10.05-1.83-3.25-3.72-6.61-5.55-10.08l-.26-.49,11.38-4.49,.22,.34c2.02,3.12,3.72,6.5,5.36,9.77,1.64,3.26,3.33,6.64,5.33,9.72l.32,.49-.53,.24c-1.56,.71-3.26,1.53-4.91,2.33-1.73,.84-3.52,1.71-5.17,2.44l-.43,.19Zm-10.16-20.52c1.74,3.28,3.54,6.47,5.28,9.56,1.76,3.12,3.57,6.34,5.33,9.66,1.52-.69,3.14-1.48,4.72-2.24,1.47-.71,2.98-1.44,4.41-2.1-1.89-2.99-3.51-6.21-5.07-9.33-1.57-3.13-3.19-6.36-5.08-9.33l-9.58,3.77Z" fill="#002346"></path>
  </g>
  <g>
    <path d="M611.6,255.49c-16.51,9.44-35.25,14.3-54.27,14.06-5.68-8.25-12.22-15.92-16.81-24.82,9.53-6.68,18.65-13.92,27.32-21.69,17.82,4.56,35.46,16.04,43.76,32.45Z" fill="#b8b8b7"></path>
    <path d="M558.66,270.06c-.45,0-.89,0-1.33,0h-.26s-.15-.22-.15-.22c-1.76-2.56-3.63-5.1-5.45-7.56-4.04-5.48-8.21-11.14-11.39-17.31l-.2-.39,.36-.25c9.48-6.64,18.65-13.93,27.27-21.65l.2-.18,.26,.07c19.51,4.99,36.4,17.53,44.08,32.71l.21,.42-.41,.24c-16.19,9.26-34.55,14.13-53.19,14.13Zm-1.06-1c18.64,.18,37.1-4.57,53.34-13.76-7.62-14.67-24.01-26.78-42.96-31.7-8.48,7.59-17.5,14.75-26.81,21.3,3.12,5.95,7.18,11.46,11.11,16.79,1.77,2.4,3.59,4.88,5.32,7.37Z" fill="#002346"></path>
  </g>
  <g>
    <path d="M665.79,271.92l-18.3-43.32c-4.92-11.67-10.13-23.73-19.58-32.16-12-10.68-28.76-13.78-43-21.27-21.57-11.37-36.76-32.64-58.68-43.32-23.14-11.27-49.71-8.95-75.34-6.62,9.9,18.94,1.34,43.08,9.46,62.85,5.5,13.37,18.06,22.81,31.57,28,13.51,5.19,28.1,6.58,42.47,8.18,14.37,1.6,29,3.48,42.15,9.41,25.86,11.62,42.49,36.81,57.7,60.73,11.36-5.18,23.48-13.06,31.55-22.48Z" fill="#fff"></path>
    <path d="M634.05,295.04l-.23-.37c-13.77-21.65-30.9-48.6-57.48-60.54-12.78-5.76-26.58-7.65-42-9.37l-2.44-.27c-13.44-1.49-27.35-3.02-40.15-7.94-8.97-3.45-25.03-11.7-31.85-28.28-3.89-9.47-3.99-20.04-4.08-30.27-.1-11.16-.21-22.7-5.36-32.54l-.35-.66,.74-.07c25.65-2.33,52.17-4.74,75.6,6.67,11.36,5.54,21.06,14.02,30.44,22.23,8.78,7.68,17.85,15.62,28.25,21.1,5.14,2.7,10.71,4.87,16.1,6.97,9.48,3.69,19.29,7.51,27,14.37,9.74,8.68,15.03,21.25,19.71,32.34l18.42,43.6-.2,.23c-7.28,8.5-18.84,16.74-31.72,22.61l-.4,.18ZM451.67,125.66c4.92,9.91,5.03,21.3,5.13,32.33,.09,10.13,.19,20.6,4.01,29.89,4.88,11.85,16.28,21.96,31.29,27.72,12.69,4.87,26.52,6.4,39.9,7.88l2.44,.27c15.5,1.73,29.39,3.63,42.3,9.45,26.7,12,43.88,38.85,57.68,60.55,12.48-5.75,23.66-13.72,30.78-21.94l-18.18-43.03c-4.63-10.99-9.89-23.45-19.45-31.98-7.58-6.75-17.3-10.53-26.7-14.19-5.41-2.11-11.01-4.28-16.2-7.01-10.5-5.54-19.62-13.51-28.44-21.23-9.33-8.16-18.98-16.61-30.22-22.08-22.96-11.18-49.05-8.94-74.34-6.64Z" fill="#002346"></path>
  </g>
  <g>
    <path d="M447.74,122.39c.42,16.92-.05,38.41,4.85,54.61,4.9,16.2,14.49,27.3,29.58,35-5.64-6.28-8.16-15.42-8.38-23.85,5.88-.91,11.91-4.21,16.43-8.07-8-18.77-15-38.8-18.94-58.81l-23.54,1.12Z" fill="#000000"></path>
    <path d="M484.34,213.67l-2.4-1.22c-15.45-7.88-24.93-19.1-29.83-35.3-4.18-13.83-4.47-31.37-4.72-46.85-.04-2.71-.09-5.36-.15-7.89v-.49s24.45-1.16,24.45-1.16l.08,.42c3.53,17.94,9.72,37.15,18.91,58.71l.14,.34-.28,.24c-4.96,4.23-10.85,7.17-16.24,8.11,.33,9.22,3.32,17.61,8.24,23.09l1.8,2Zm-36.09-90.8c.06,2.39,.1,4.87,.14,7.41,.25,15.41,.53,32.87,4.68,46.57,4.58,15.15,13.24,25.86,27.16,33.55-4.21-5.69-6.71-13.64-6.93-22.24v-.44s.42-.07,.42-.07c5.23-.81,11.01-3.62,15.9-7.72-9.07-21.32-15.2-40.35-18.74-58.15l-22.62,1.08Z" fill="#002346"></path>
  </g>
</svg>
